<svg xmlns="http://www.w3.org/2000/svg" version="1.1" xmlns:xlink="http://www.w3.org/1999/xlink" xmlns:svgjs="http://svgjs.dev/svgjs" width="1500" height="1500" viewBox="0 0 1500 1500"><rect width="1500" height="1500" fill="#ffffff"></rect><g transform="matrix(0.6666666666666666,0,0,0.6666666666666666,250.35089971414385,398.61808367071524)"><svg viewBox="0 0 351 247" data-background-color="#ffffff" preserveAspectRatio="xMidYMid meet" height="1055" width="1500" xmlns="http://www.w3.org/2000/svg" xmlns:xlink="http://www.w3.org/1999/xlink"><g id="tight-bounds" transform="matrix(1,0,0,1,-0.12316579966449126,-0.09999999999999432)"><svg viewBox="0 0 351.246331599329 247.2" height="247.2" width="351.246331599329"><g><svg viewBox="0 0 395.52 278.3589042903666" height="247.2" width="351.246331599329"><g transform="matrix(1,0,0,1,0,204.38996736727555)"><svg viewBox="0 0 395.52 73.96893692309104" height="73.96893692309104" width="395.52"><g id="textblocktransform"><svg viewBox="0 0 395.52 73.96893692309104" height="73.96893692309104" width="395.52" id="textblock"><g><svg viewBox="0 0 395.52 47.203086904558646" height="47.203086904558646" width="395.52"><g transform="matrix(1,0,0,1,0,0)"><svg width="395.52" viewBox="0 -34.95 292.83 34.95" height="47.203086904558646" data-palette-color="#42c366"><path d="M32.8-2.15L37.65-2.15 37.65 0 26.85 0 18.5-11.75 10.75-11.75 10.75 0 0 0 0-2.15 4.85-2.15 4.85-34.95 17.85-34.95Q25.85-34.95 29.3-32.25 32.75-29.55 32.75-23.6L32.75-23.6Q32.75-14.95 25.2-12.7L25.2-12.7 32.8-2.15ZM18.1-17.1Q23.1-17.1 24.9-18.65 26.7-20.2 26.7-23.63 26.7-27.05 24.85-28.33 23-29.6 18.25-29.6L18.25-29.6 10.75-29.6 10.75-17.1 18.1-17.1ZM64.4-2.15L74.8-2.15 74.8 0 36.4 0 36.4-2.15 46.75-2.15Q40.8-6.3 40.8-15.3L40.8-15.3 40.8-34.95 46.7-34.95 46.7-15.55Q46.7-10.75 49.1-7.95 51.5-5.15 55.6-5.15 59.7-5.15 62.1-7.95 64.5-10.75 64.5-15.55L64.5-15.55 64.5-34.95 70.4-34.95 70.4-15.3Q70.4-6.25 64.4-2.15L64.4-2.15ZM85.55-2.15L109-2.15 109 0 74.8 0 74.8-2.15 79.65-2.15 79.65-34.95 91.65-34.95Q99.6-34.95 103.25-31.9 106.9-28.85 106.9-22.5 106.9-16.15 103.17-13.2 99.45-10.25 91.75-10.25L91.75-10.25 85.55-10.25 85.55-2.15ZM92.4-15.6Q97.3-15.6 99.07-17.48 100.85-19.35 100.85-22.98 100.85-26.6 98.6-28.1 96.35-29.6 91.55-29.6L91.55-29.6 85.55-29.6 85.55-15.6 92.4-15.6ZM145.14-2.15L150.94-2.15 150.94 0 139.79 0 136.29-7.95 118.79-7.95 115.29 0 104.14 0 104.14-2.15 109.94-2.15 124.39-34.95 130.69-34.95 145.14-2.15ZM121.19-13.4L133.89-13.4 127.54-27.8 121.19-13.4ZM146.09-2.15L150.94-2.15 150.94-34.95 156.84-34.95 177.14-8.85 177.14-34.95 183.04-34.95 183.04-2.15 187.89-2.15 187.89 0 176.64 0 156.84-25.5 156.84 0 146.09 0 146.09-2.15ZM205.94-2.15L218.09-2.15 218.09 0 187.89 0 187.89-2.15 200.04-2.15 200.04-29.55 189.44-29.55 189.44-34.95 216.54-34.95 216.54-29.55 205.94-29.55 205.94-2.15ZM254.24-2.15L260.04-2.15 260.04 0 248.89 0 245.39-7.95 227.89-7.95 224.39 0 213.24 0 213.24-2.15 219.04-2.15 233.49-34.95 239.79-34.95 254.24-2.15ZM230.29-13.4L242.99-13.4 236.64-27.8 230.29-13.4ZM287.98-2.15L292.83-2.15 292.83 0 282.03 0 273.68-11.75 265.93-11.75 265.93 0 255.18 0 255.18-2.15 260.03-2.15 260.03-34.95 273.03-34.95Q281.03-34.95 284.48-32.25 287.93-29.55 287.93-23.6L287.93-23.6Q287.93-14.95 280.38-12.7L280.38-12.7 287.98-2.15ZM273.28-17.1Q278.28-17.1 280.08-18.65 281.88-20.2 281.88-23.63 281.88-27.05 280.03-28.33 278.18-29.6 273.43-29.6L273.43-29.6 265.93-29.6 265.93-17.1 273.28-17.1Z" opacity="1" transform="matrix(1,0,0,1,0,0)" fill="#000000" class="wordmark-text-0" data-fill-palette-color="primary" id="text-0"></path></svg></g></svg></g><g transform="matrix(1,0,0,1,75.54432,58.346602848639236)"><svg viewBox="0 0 244.43135999999998 15.622334074451807" height="15.622334074451807" width="244.43135999999998"><g transform="matrix(1,0,0,1,0,0)"><svg width="244.43135999999998" viewBox="0.65 -37 588.24 37.6" height="15.622334074451807" data-palette-color="#42c366"><path d="M16.85 0L12.65 0 12.65-13.8 0.65-34.9 5.45-34.9 14.75-18.1 14.9-18.1 24.2-34.9 29-34.9 16.85-13.95 16.85 0ZM41.15 0.6L41.15 0.6Q38.55 0.6 36.4-0.35 34.25-1.3 32.72-3.08 31.2-4.85 30.35-7.33 29.5-9.8 29.5-12.9L29.5-12.9Q29.5-15.95 30.35-18.45 31.2-20.95 32.72-22.73 34.25-24.5 36.4-25.45 38.55-26.4 41.15-26.4L41.15-26.4Q43.75-26.4 45.87-25.45 48-24.5 49.55-22.73 51.1-20.95 51.95-18.45 52.8-15.95 52.8-12.9L52.8-12.9Q52.8-9.8 51.95-7.33 51.1-4.85 49.55-3.08 48-1.3 45.87-0.35 43.75 0.6 41.15 0.6ZM41.15-2.95L41.15-2.95Q44.4-2.95 46.45-4.95 48.5-6.95 48.5-11.05L48.5-11.05 48.5-14.75Q48.5-18.85 46.45-20.85 44.4-22.85 41.15-22.85L41.15-22.85Q37.9-22.85 35.85-20.85 33.8-18.85 33.8-14.75L33.8-14.75 33.8-11.05Q33.8-6.95 35.85-4.95 37.9-2.95 41.15-2.95ZM75.3 0L75.3-4.2 75.09-4.2Q74.7-3.3 74.12-2.43 73.55-1.55 72.7-0.88 71.84-0.2 70.65 0.2 69.45 0.6 67.84 0.6L67.84 0.6Q63.85 0.6 61.5-1.98 59.15-4.55 59.15-9.25L59.15-9.25 59.15-25.8 63.15-25.8 63.15-9.95Q63.15-3 69.05-3L69.05-3Q70.25-3 71.37-3.3 72.5-3.6 73.37-4.2 74.25-4.8 74.77-5.73 75.3-6.65 75.3-7.95L75.3-7.95 75.3-25.8 79.3-25.8 79.3 0 75.3 0ZM91.79 0L87.79 0 87.79-25.8 91.79-25.8 91.79-21.05 92.04-21.05Q92.74-22.9 94.54-24.35 96.34-25.8 99.49-25.8L99.49-25.8 101.04-25.8 101.04-21.8 98.69-21.8Q95.44-21.8 93.62-20.58 91.79-19.35 91.79-17.5L91.79-17.5 91.79 0ZM118.34 0L118.34-34.9 130.04-34.9Q133.29-34.9 135.94-33.8 138.59-32.7 140.46-30.53 142.34-28.35 143.34-25.08 144.34-21.8 144.34-17.45L144.34-17.45Q144.34-13.1 143.34-9.83 142.34-6.55 140.46-4.38 138.59-2.2 135.94-1.1 133.29 0 130.04 0L130.04 0 118.34 0ZM122.54-3.7L130.04-3.7Q132.19-3.7 133.99-4.42 135.79-5.15 137.09-6.55 138.39-7.95 139.11-9.98 139.84-12 139.84-14.6L139.84-14.6 139.84-20.3Q139.84-22.9 139.11-24.93 138.39-26.95 137.09-28.35 135.79-29.75 133.99-30.48 132.19-31.2 130.04-31.2L130.04-31.2 122.54-31.2 122.54-3.7ZM155.49 0L151.49 0 151.49-25.8 155.49-25.8 155.49-21.05 155.74-21.05Q156.44-22.9 158.24-24.35 160.04-25.8 163.19-25.8L163.19-25.8 164.74-25.8 164.74-21.8 162.39-21.8Q159.14-21.8 157.31-20.58 155.49-19.35 155.49-17.5L155.49-17.5 155.49 0ZM179.28 0.6L179.28 0.6Q176.63 0.6 174.51-0.35 172.38-1.3 170.86-3.08 169.33-4.85 168.51-7.33 167.68-9.8 167.68-12.9L167.68-12.9Q167.68-15.95 168.51-18.45 169.33-20.95 170.86-22.73 172.38-24.5 174.51-25.45 176.63-26.4 179.28-26.4L179.28-26.4Q181.88-26.4 183.93-25.45 185.98-24.5 187.43-22.83 188.88-21.15 189.66-18.85 190.43-16.55 190.43-13.8L190.43-13.8 190.43-11.9 171.88-11.9 171.88-10.7Q171.88-9.05 172.41-7.63 172.93-6.2 173.91-5.15 174.88-4.1 176.31-3.5 177.73-2.9 179.53-2.9L179.53-2.9Q181.98-2.9 183.81-4.05 185.63-5.2 186.63-7.35L186.63-7.35 189.48-5.3Q188.23-2.65 185.58-1.03 182.93 0.6 179.28 0.6ZM179.28-23.05L179.28-23.05Q177.63-23.05 176.28-22.48 174.93-21.9 173.96-20.85 172.98-19.8 172.43-18.38 171.88-16.95 171.88-15.25L171.88-15.25 171.88-14.9 186.13-14.9 186.13-15.45Q186.13-18.9 184.26-20.98 182.38-23.05 179.28-23.05ZM218.03 0L215.78 0Q213.53 0 212.56-1.2 211.58-2.4 211.33-4.2L211.33-4.2 211.08-4.2Q210.23-1.8 208.28-0.6 206.33 0.6 203.63 0.6L203.63 0.6Q199.53 0.6 197.26-1.5 194.98-3.6 194.98-7.2L194.98-7.2Q194.98-10.85 197.66-12.8 200.33-14.75 205.98-14.75L205.98-14.75 211.08-14.75 211.08-17.3Q211.08-20.05 209.58-21.5 208.08-22.95 204.98-22.95L204.98-22.95Q202.63-22.95 201.06-21.9 199.48-20.85 198.43-19.1L198.43-19.1 196.03-21.35Q197.08-23.45 199.38-24.93 201.68-26.4 205.18-26.4L205.18-26.4Q209.88-26.4 212.48-24.1 215.08-21.8 215.08-17.7L215.08-17.7 215.08-3.5 218.03-3.5 218.03 0ZM204.28-2.8L204.28-2.8Q205.78-2.8 207.03-3.15 208.28-3.5 209.18-4.15 210.08-4.8 210.58-5.65 211.08-6.5 211.08-7.5L211.08-7.5 211.08-11.75 205.78-11.75Q202.33-11.75 200.76-10.75 199.18-9.75 199.18-7.85L199.18-7.85 199.18-6.8Q199.18-4.9 200.56-3.85 201.93-2.8 204.28-2.8ZM227.73 0L223.73 0 223.73-25.8 227.73-25.8 227.73-21.6 227.93-21.6Q228.38-22.6 228.95-23.48 229.53-24.35 230.35-25 231.18-25.65 232.28-26.03 233.38-26.4 234.88-26.4L234.88-26.4Q237.43-26.4 239.58-25.18 241.73-23.95 242.78-21.15L242.78-21.15 242.88-21.15Q243.58-23.25 245.5-24.83 247.43-26.4 250.73-26.4L250.73-26.4Q254.68-26.4 256.9-23.83 259.13-21.25 259.13-16.55L259.13-16.55 259.13 0 255.13 0 255.13-15.85Q255.13-19.3 253.78-21.05 252.43-22.8 249.48-22.8L249.48-22.8Q248.28-22.8 247.2-22.5 246.13-22.2 245.28-21.6 244.43-21 243.93-20.08 243.43-19.15 243.43-17.9L243.43-17.9 243.43 0 239.43 0 239.43-15.85Q239.43-19.3 238.08-21.05 236.73-22.8 233.88-22.8L233.88-22.8Q232.68-22.8 231.58-22.5 230.48-22.2 229.63-21.6 228.78-21 228.25-20.08 227.73-19.15 227.73-17.9L227.73-17.9 227.73 0ZM269.93 0.6L269.93 0.6Q268.33 0.6 267.6-0.2 266.88-1 266.88-2.3L266.88-2.3 266.88-2.95Q266.88-4.25 267.6-5.05 268.33-5.85 269.93-5.85L269.93-5.85Q271.53-5.85 272.25-5.05 272.98-4.25 272.98-2.95L272.98-2.95 272.98-2.3Q272.98-1 272.25-0.2 271.53 0.6 269.93 0.6ZM283.52 0.6L283.52 0.6Q281.92 0.6 281.2-0.2 280.47-1 280.47-2.3L280.47-2.3 280.47-2.95Q280.47-4.25 281.2-5.05 281.92-5.85 283.52-5.85L283.52-5.85Q285.12-5.85 285.85-5.05 286.57-4.25 286.57-2.95L286.57-2.95 286.57-2.3Q286.57-1 285.85-0.2 285.12 0.6 283.52 0.6ZM297.12 0.6L297.12 0.6Q295.52 0.6 294.8-0.2 294.07-1 294.07-2.3L294.07-2.3 294.07-2.95Q294.07-4.25 294.8-5.05 295.52-5.85 297.12-5.85L297.12-5.85Q298.72-5.85 299.45-5.05 300.17-4.25 300.17-2.95L300.17-2.95 300.17-2.3Q300.17-1 299.45-0.2 298.72 0.6 297.12 0.6ZM329.87 0L325.22 0 316.72-34.9 321.17-34.9 324.92-18.1 327.82-5.05 327.92-5.05 331.17-18.1 335.57-34.9 340.37-34.9 344.62-18.1 347.87-5.1 348.02-5.1 351.02-18.1 354.97-34.9 359.27-34.9 350.32 0 345.67 0 341.12-17.4 337.92-30.2 337.82-30.2 334.52-17.4 329.87 0ZM373.46 0.6L373.46 0.6Q370.81 0.6 368.69-0.35 366.56-1.3 365.04-3.08 363.51-4.85 362.69-7.33 361.86-9.8 361.86-12.9L361.86-12.9Q361.86-15.95 362.69-18.45 363.51-20.95 365.04-22.73 366.56-24.5 368.69-25.45 370.81-26.4 373.46-26.4L373.46-26.4Q376.06-26.4 378.11-25.45 380.16-24.5 381.61-22.83 383.06-21.15 383.84-18.85 384.61-16.55 384.61-13.8L384.61-13.8 384.61-11.9 366.06-11.9 366.06-10.7Q366.06-9.05 366.59-7.63 367.11-6.2 368.09-5.15 369.06-4.1 370.49-3.5 371.91-2.9 373.71-2.9L373.71-2.9Q376.16-2.9 377.99-4.05 379.81-5.2 380.81-7.35L380.81-7.35 383.66-5.3Q382.41-2.65 379.76-1.03 377.11 0.6 373.46 0.6ZM373.46-23.05L373.46-23.05Q371.81-23.05 370.46-22.48 369.11-21.9 368.14-20.85 367.16-19.8 366.61-18.38 366.06-16.95 366.06-15.25L366.06-15.25 366.06-14.9 380.31-14.9 380.31-15.45Q380.31-18.9 378.44-20.98 376.56-23.05 373.46-23.05ZM403.41 0L403.41-34.9 415.11-34.9Q418.36-34.9 421.01-33.8 423.66-32.7 425.53-30.53 427.41-28.35 428.41-25.08 429.41-21.8 429.41-17.45L429.41-17.45Q429.41-13.1 428.41-9.83 427.41-6.55 425.53-4.38 423.66-2.2 421.01-1.1 418.36 0 415.11 0L415.11 0 403.41 0ZM407.61-3.7L415.11-3.7Q417.26-3.7 419.06-4.42 420.86-5.15 422.16-6.55 423.46-7.95 424.18-9.98 424.91-12 424.91-14.6L424.91-14.6 424.91-20.3Q424.91-22.9 424.18-24.93 423.46-26.95 422.16-28.35 420.86-29.75 419.06-30.48 417.26-31.2 415.11-31.2L415.11-31.2 407.61-31.2 407.61-3.7ZM446.26 0.6L446.26 0.6Q443.61 0.6 441.48-0.35 439.36-1.3 437.83-3.08 436.31-4.85 435.48-7.33 434.66-9.8 434.66-12.9L434.66-12.9Q434.66-15.95 435.48-18.45 436.31-20.95 437.83-22.73 439.36-24.5 441.48-25.45 443.61-26.4 446.26-26.4L446.26-26.4Q448.86-26.4 450.91-25.45 452.96-24.5 454.41-22.83 455.86-21.15 456.63-18.85 457.41-16.55 457.41-13.8L457.41-13.8 457.41-11.9 438.86-11.9 438.86-10.7Q438.86-9.05 439.38-7.63 439.91-6.2 440.88-5.15 441.86-4.1 443.28-3.5 444.71-2.9 446.51-2.9L446.51-2.9Q448.96-2.9 450.78-4.05 452.61-5.2 453.61-7.35L453.61-7.35 456.46-5.3Q455.21-2.65 452.56-1.03 449.91 0.6 446.26 0.6ZM446.26-23.05L446.26-23.05Q444.61-23.05 443.26-22.48 441.91-21.9 440.93-20.85 439.96-19.8 439.41-18.38 438.86-16.95 438.86-15.25L438.86-15.25 438.86-14.9 453.11-14.9 453.11-15.45Q453.11-18.9 451.23-20.98 449.36-23.05 446.26-23.05ZM471.8 0L468.25 0Q466.15 0 465.08-1.18 464-2.35 464-4.15L464-4.15 464-37 468-37 468-3.5 471.8-3.5 471.8 0ZM479.6-31.85L479.6-31.85Q478.3-31.85 477.73-32.48 477.15-33.1 477.15-34.1L477.15-34.1 477.15-34.75Q477.15-35.75 477.73-36.38 478.3-37 479.6-37L479.6-37Q480.9-37 481.48-36.38 482.05-35.75 482.05-34.75L482.05-34.75 482.05-34.1Q482.05-33.1 481.48-32.48 480.9-31.85 479.6-31.85ZM477.6 0L477.6-25.8 481.6-25.8 481.6 0 477.6 0ZM500.45 0L495.8 0 486.75-25.8 490.75-25.8 495.25-13 498.05-4.2 498.3-4.2 501.1-13 505.7-25.8 509.55-25.8 500.45 0ZM524 0.6L524 0.6Q521.35 0.6 519.22-0.35 517.1-1.3 515.57-3.08 514.05-4.85 513.22-7.33 512.4-9.8 512.4-12.9L512.4-12.9Q512.4-15.95 513.22-18.45 514.05-20.95 515.57-22.73 517.1-24.5 519.22-25.45 521.35-26.4 524-26.4L524-26.4Q526.6-26.4 528.65-25.45 530.7-24.5 532.15-22.83 533.6-21.15 534.37-18.85 535.15-16.55 535.15-13.8L535.15-13.8 535.15-11.9 516.6-11.9 516.6-10.7Q516.6-9.05 517.12-7.63 517.65-6.2 518.62-5.15 519.6-4.1 521.02-3.5 522.45-2.9 524.25-2.9L524.25-2.9Q526.7-2.9 528.52-4.05 530.35-5.2 531.35-7.35L531.35-7.35 534.2-5.3Q532.95-2.65 530.3-1.03 527.65 0.6 524 0.6ZM524-23.05L524-23.05Q522.35-23.05 521-22.48 519.65-21.9 518.67-20.85 517.7-19.8 517.15-18.38 516.6-16.95 516.6-15.25L516.6-15.25 516.6-14.9 530.85-14.9 530.85-15.45Q530.85-18.9 528.97-20.98 527.1-23.05 524-23.05ZM545.74 0L541.74 0 541.74-25.8 545.74-25.8 545.74-21.05 545.99-21.05Q546.69-22.9 548.49-24.35 550.29-25.8 553.44-25.8L553.44-25.8 554.99-25.8 554.99-21.8 552.64-21.8Q549.39-21.8 547.57-20.58 545.74-19.35 545.74-17.5L545.74-17.5 545.74 0ZM558.64 0.6L558.64 0.6Q557.04 0.6 556.32-0.2 555.59-1 555.59-2.3L555.59-2.3 555.59-2.95Q555.59-4.25 556.32-5.05 557.04-5.85 558.64-5.85L558.64-5.85Q560.24-5.85 560.97-5.05 561.69-4.25 561.69-2.95L561.69-2.95 561.69-2.3Q561.69-1 560.97-0.2 560.24 0.6 558.64 0.6ZM572.24 0.6L572.24 0.6Q570.64 0.6 569.91-0.2 569.19-1 569.19-2.3L569.19-2.3 569.19-2.95Q569.19-4.25 569.91-5.05 570.64-5.85 572.24-5.85L572.24-5.85Q573.84-5.85 574.56-5.05 575.29-4.25 575.29-2.95L575.29-2.95 575.29-2.3Q575.29-1 574.56-0.2 573.84 0.6 572.24 0.6ZM585.84 0.6L585.84 0.6Q584.24 0.6 583.51-0.2 582.79-1 582.79-2.3L582.79-2.3 582.79-2.95Q582.79-4.25 583.51-5.05 584.24-5.85 585.84-5.85L585.84-5.85Q587.44-5.85 588.16-5.05 588.89-4.25 588.89-2.95L588.89-2.95 588.89-2.3Q588.89-1 588.16-0.2 587.44 0.6 585.84 0.6Z" opacity="1" transform="matrix(1,0,0,1,0,0)" fill="#000000" class="slogan-text-1" data-fill-palette-color="secondary" id="text-1"></path></svg></g></svg></g></svg></g></svg></g><g transform="matrix(1,0,0,1,106.70853226044281,0)"><svg viewBox="0 0 182.10293547911436 182.10293547911436" height="182.10293547911436" width="182.10293547911436"><g><svg></svg></g><g id="icon-0"><svg viewBox="0 0 182.10293547911436 182.10293547911436" height="182.10293547911436" width="182.10293547911436"><g><path d="M0 91.051c0-50.286 40.765-91.051 91.051-91.051 50.286 0 91.051 40.765 91.052 91.051 0 50.286-40.765 91.051-91.052 91.052-50.286 0-91.051-40.765-91.051-91.052zM91.051 177.846c47.935 0 86.795-38.859 86.795-86.795 0-47.935-38.859-86.795-86.795-86.794-47.935 0-86.795 38.859-86.794 86.794 0 47.935 38.859 86.795 86.794 86.795z" data-fill-palette-color="accent" fill="#000000" stroke="transparent"></path></g><g transform="matrix(1,0,0,1,36.52497127724833,51.49621553794254)"><svg viewBox="0 0 109.0529929246177 79.11050440322929" height="79.11050440322929" width="109.0529929246177"><g><svg xmlns="http://www.w3.org/2000/svg" xmlns:xlink="http://www.w3.org/1999/xlink" version="1.1" x="0" y="0" viewBox="5.038999999999999 17.384 89.923 65.233" enable-background="new 0 0 100 100" xml:space="preserve" height="79.11050440322929" width="109.0529929246177" class="icon-cg-0" data-fill-palette-color="accent" id="cg-0"><g fill="#42c366" data-fill-palette-color="accent"><polygon points="51.882,36.857 59.979,17.384 60.901,18.307  " fill="#000000" data-fill-palette-color="accent"></polygon><polygon points="47.911,36.857 39.813,17.384 38.891,18.307  " fill="#000000" data-fill-palette-color="accent"></polygon></g><path d="M78.997 56.511l15.965-27.1-0.232-0.786-11.671-6.317L51.767 41.703l-1.329 0.689 1.816-3.69L50 36.243l-2.461 2.459 1.968 3.661-1.274-0.66L16.941 22.308l-11.67 6.317-0.232 0.786 15.964 27.1-2.636 1.244L16.56 66.27l0.249 0.827 6.144 9.809 0.618 0.541 10.652 5.17 15.38-37.296-3.704 19.005 4.663 4.665 4.459-4.46-4.608-19.316 15.364 37.402 10.652-5.17 0.617-0.541 6.144-9.809 0.249-0.827-1.806-8.515L78.997 56.511zM16.914 23.256l30.062 18.632L6.355 28.97 16.914 23.256zM19.084 58.322l27.588-13.108L35.14 53.218 17.545 65.577 19.084 58.322zM23.492 76.222l-6.01-9.597 30.46-21.398L23.492 76.222zM33.797 81.499l-9.707-4.713 24.785-31.572L33.797 81.499zM21.738 56.144L6.21 29.784l42.671 13.57L21.738 56.144zM83.085 23.256l10.56 5.714-40.62 12.918L83.085 23.256zM93.79 29.784L78.262 56.144 51.119 43.354 93.79 29.784zM66.203 81.499L51.131 45.214l24.778 31.572L66.203 81.499zM76.509 76.222L52.058 45.227l30.461 21.398L76.509 76.222zM64.86 53.218l-11.514-8.004 27.569 13.108 1.539 7.255L64.86 53.218z" fill="#000000" data-fill-palette-color="accent"></path></svg></g></svg></g></svg></g></svg></g><g></g></svg></g><defs></defs></svg><rect width="351.246331599329" height="247.2" fill="none" stroke="none" visibility="hidden"></rect></g></svg></g></svg>