<svg width="142" height="64" viewBox="0 0 142 64" fill="none" xmlns="http://www.w3.org/2000/svg">
<g clip-path="url(#clip0_967_297)">
<path d="M60.2002 42.9538H56.2002V42.3385C56.2002 38.4308 56.231 34.5231 56.1848 30.6154C56.1695 29.6615 55.9695 28.6923 55.6925 27.7846C55.3233 26.6308 54.3848 26.0154 53.2156 25.8461C52.0618 25.6769 50.9233 25.8 49.8925 26.3538C48.7233 26.9692 48.1079 27.9385 48.1079 29.2923C48.1079 33.6615 48.1079 38.0461 48.1079 42.4154V42.9231H44.1079V42.3077C44.1079 38.4308 44.1079 34.5538 44.1079 30.6923C44.1079 29.6308 44.0156 28.5846 43.5541 27.6154C43.0925 26.6461 42.3387 26.0769 41.3079 25.8923C40.0002 25.6615 38.7541 25.8308 37.6002 26.5077C36.5233 27.1385 36.0002 28.0923 36.0002 29.3385C36.0002 33.6923 36.0002 38.0615 36.0002 42.4154C36.0002 42.5846 35.9848 42.7538 35.9695 42.9538H32.0771V22.8769H36.0002V26.1538C36.0464 26.1846 36.0925 26.2154 36.1387 26.2308C37.231 23.6615 39.031 22.2154 41.9079 22.3846C44.6618 22.5385 46.6156 23.8154 47.6156 26.4769C48.4002 24.6923 49.5541 23.3231 51.3848 22.7692C53.7541 22.0615 56.0618 22.1538 58.0156 23.8923C59.2464 24.9846 59.831 26.4461 60.0464 28.0461C60.1541 28.8154 60.2156 29.6 60.2156 30.3692C60.231 34.3538 60.2156 38.3231 60.2156 42.3077L60.2002 42.9538Z" fill="black"/>
<path d="M70.1533 39.7231V50.6769H66.2148V22.8616H70.1533V26.0923C70.1995 26.1077 70.2456 26.1077 70.2918 26.1231C70.3687 25.9846 70.4456 25.8462 70.5072 25.6923C71.3379 23.8615 72.7841 22.8154 74.7379 22.4769C78.5071 21.8308 81.6456 23.6 83.1072 27.1385C84.0456 29.4154 84.2302 31.7846 84.0764 34.2154C83.9841 35.7385 83.7072 37.2308 83.1072 38.6462C82.061 41.0923 80.3841 42.8 77.6764 43.2769C75.6302 43.6308 73.6456 43.4769 72.0148 42.0154C71.4302 41.4769 71.0148 40.7539 70.5225 40.1077C70.4302 39.9846 70.3687 39.8154 70.2918 39.6769C70.261 39.6923 70.1995 39.7077 70.1533 39.7231ZM79.9379 32.9231C79.9225 32.9231 79.8918 32.9231 79.8764 32.9231C79.8764 32.1077 79.9379 31.2923 79.861 30.4923C79.6918 28.5385 78.861 26.9539 76.9533 26.1846C75.4456 25.5692 73.8918 25.6462 72.3995 26.2923C70.8456 26.9539 70.061 28.1077 70.1072 29.8616C70.1687 31.9692 70.1225 34.0769 70.1225 36.1846C70.1225 37.6462 70.7995 38.6769 72.0456 39.3846C72.8918 39.8615 73.8302 40.0154 74.7841 40.0308C77.4456 40.0615 79.3225 38.5539 79.7533 35.9231C79.9225 34.9385 79.8918 33.9231 79.9379 32.9231Z" fill="black"/>
<path d="M125.169 47.4462C126.138 47.4462 127.092 47.4308 128.031 47.4616C128.4 47.477 128.554 47.3385 128.661 47.0154C128.954 46.0923 129.308 45.1847 129.585 44.2616C129.661 43.9847 129.661 43.6462 129.569 43.3846C127.261 36.7693 124.938 30.1539 122.6 23.5385C122.523 23.3385 122.461 23.1231 122.369 22.8308H124.969C125.892 22.8308 126.492 23.2616 126.785 24.1231C127.985 27.6308 129.2 31.1385 130.369 34.6616C130.8 35.9539 131.108 37.277 131.492 38.6C131.554 38.8154 131.615 39.0154 131.815 39.2154C131.877 39.0923 131.938 38.9539 131.985 38.8308C133.723 33.6462 135.461 28.4462 137.185 23.2616C137.292 22.9539 137.415 22.8154 137.769 22.8308C138.861 22.8462 139.938 22.8462 141.108 22.8462C141.061 23.0308 141.031 23.1693 140.985 23.3077C138.154 31.3385 135.323 39.3539 132.477 47.3846C132.323 47.8154 132.092 48.2308 131.877 48.6462C131.261 49.8308 130.277 50.5077 128.954 50.6154C127.708 50.7231 126.446 50.7385 125.138 50.7846L125.169 47.4462Z" fill="black"/>
<path d="M0.861328 39.6C1.73825 38.8154 2.58441 38.0615 3.33825 37.3846C4.26133 38.0923 5.07671 38.8615 6.03056 39.4C7.72287 40.3538 9.55364 40.4461 11.3998 39.8C12.4767 39.4308 13.0152 38.5538 13.0152 37.3384C13.0152 36.3077 12.4767 35.4 11.4459 35.0769C10.5383 34.7846 9.55364 34.7231 8.61517 34.5077C7.39979 34.2308 6.16902 34.0154 5.01517 33.5692C2.55364 32.6308 1.39979 30.6308 1.61517 28C1.84594 25.2923 3.43056 23.4 6.24594 22.7077C8.56902 22.1384 10.8767 22.2 13.1229 23.0923C14.4459 23.6154 15.4767 24.4923 16.3075 25.4154C15.5229 26.2769 14.7844 27.0769 14.0306 27.9231C13.0921 26.9538 12.0921 26.1692 10.8152 25.8461C9.52287 25.5231 8.21517 25.4615 6.93825 25.9692C5.93825 26.3692 5.47671 27.1538 5.44594 28.1846C5.41517 29.2 5.83056 30.0308 6.81517 30.3384C7.95364 30.6923 9.15364 30.9231 10.3383 31.1538C11.6767 31.4 13.0306 31.6154 14.2459 32.2923C15.8613 33.1846 16.6921 34.5846 16.8459 36.4C17.1383 39.8615 14.969 42.4923 11.3075 43.2C9.33825 43.5846 7.36902 43.5231 5.46133 42.8923C3.58441 42.3077 2.13825 41.1231 0.861328 39.6Z" fill="black"/>
<path d="M115.277 22.8154H119.431V26.1077H115.246V42.9231H111.262V26.1539H108.139V22.8462H111.231C111.231 21.6616 111.2 20.5539 111.246 19.4308C111.277 18.7231 111.354 18.0154 111.539 17.3385C112 15.6462 113.385 14.4769 115.139 14.3846C116.554 14.3077 117.969 14.3693 119.416 14.3693V17.5693H115.262L115.277 22.8154Z" fill="black"/>
<path d="M93.0156 39.6923H95.831V43.0308C94.4925 42.9692 93.1695 43 91.8618 42.8154C90.4156 42.6154 89.5541 41.6461 89.2156 40.2461C89.1233 39.8615 89.0771 39.4615 89.0771 39.0615C89.0771 30.9384 89.0771 22.8154 89.0771 14.6923C89.0771 14.5692 89.0925 14.4615 89.1079 14.3077H93.031L93.0156 39.6923Z" fill="black"/>
<path d="M103.954 22.8616V42.9231H100.062V22.8616H103.954Z" fill="black"/>
<path d="M25.7539 42.9385H21.877V22.877H25.7539V42.9385Z" fill="black"/>
<path d="M23.9536 19.6308C23.4921 19.6308 23.0306 19.4769 22.6613 19.1385C21.8459 18.4308 21.769 17.2 22.4921 16.3846C23.6306 15.0769 27.8921 10.8154 34.6459 10.5077C42.4459 10.1539 47.4305 15.3385 48.3536 16.3846C49.0613 17.1846 48.9844 18.4308 48.1844 19.1385C47.3844 19.8462 46.1382 19.7692 45.4305 18.9692C44.7075 18.1692 40.8613 14.1385 34.8152 14.4154C29.5998 14.6462 26.2921 17.9539 25.4152 18.9692C25.0306 19.4154 24.4921 19.6308 23.9536 19.6308Z" fill="url(#paint0_linear_967_297)"/>
<path d="M23.9537 19.9077C25.2112 19.9077 26.2306 18.8883 26.2306 17.6308C26.2306 16.3733 25.2112 15.3539 23.9537 15.3539C22.6962 15.3539 21.6768 16.3733 21.6768 17.6308C21.6768 18.8883 22.6962 19.9077 23.9537 19.9077Z" fill="black"/>
<path d="M46.9071 19.6769C47.5686 19.6769 48.2148 19.3385 48.584 18.7385C54.2763 9.32309 64.5532 3.67694 75.4148 4.00001C91.6763 4.47694 100.107 18.1539 100.461 18.7385C101.015 19.6616 102.215 19.9539 103.138 19.4C104.061 18.8462 104.353 17.6462 103.799 16.7231C103.399 16.0616 93.8917 0.630783 75.5225 0.0923212C63.2609 -0.261525 51.6455 6.10771 45.2301 16.7231C44.6763 17.6462 44.9686 18.8462 45.8917 19.4C46.2148 19.5846 46.5686 19.6769 46.9071 19.6769Z" fill="url(#paint1_linear_967_297)"/>
<path d="M102 19.9077C103.257 19.9077 104.276 18.8883 104.276 17.6308C104.276 16.3733 103.257 15.3539 102 15.3539C100.742 15.3539 99.7227 16.3733 99.7227 17.6308C99.7227 18.8883 100.742 19.9077 102 19.9077Z" fill="black"/>
<path d="M44.3225 60.7846C45.3532 60.7846 46.2455 59.9077 46.2455 58.6C46.2455 57.2923 45.3532 56.4154 44.3225 56.4154C43.2917 56.4154 42.3994 57.2923 42.3994 58.6C42.4148 59.9231 43.3071 60.7846 44.3225 60.7846ZM41.5225 61.6769V53.0769H42.5532V56.2769C42.6763 56.1231 42.8455 55.9846 43.0148 55.8615C43.3225 55.6615 43.784 55.4461 44.3994 55.4461C45.984 55.4461 47.2763 56.7384 47.2763 58.5846C47.2763 60.4307 45.984 61.7231 44.3994 61.7231C43.784 61.7231 43.3225 61.5538 43.0148 61.3538C42.8302 61.2461 42.6763 61.1231 42.5532 60.9692L42.2763 61.6461L41.5225 61.6769Z" fill="black"/>
<path d="M53.1224 60.0308H54.2147C53.7994 60.9231 52.984 61.7385 51.5994 61.7385C49.9532 61.7385 48.6455 60.4462 48.6455 58.6C48.6455 56.7539 50.0301 55.4615 51.5224 55.4615C53.0147 55.4615 54.3378 56.6769 54.3378 58.5231C54.3378 58.7077 54.307 58.8308 54.2917 58.9231L54.2609 59.0769H49.7378C49.8147 59.9692 50.6147 60.7846 51.5994 60.7846C52.4147 60.7846 52.9224 60.3231 53.1224 60.0308ZM49.7532 58.2H53.3224C53.1686 57.1846 52.4301 56.4308 51.5378 56.4308C50.6455 56.4308 49.907 57.1692 49.7532 58.2Z" fill="black"/>
<path d="M56.4155 63.8615V63.0461C57.0309 63.0461 57.2925 62.7692 57.5078 62.2308L57.7848 61.5538L55.3848 55.5538H56.4771L58.3386 60.2615L60.2001 55.5538H61.2925L58.6155 62.2308C58.1232 63.4769 57.6463 63.9384 56.8309 63.9384C56.7232 63.9384 56.6309 63.9231 56.5386 63.9077L56.4155 63.8615Z" fill="black"/>
<path d="M65.2002 60.7846C66.154 60.7846 67.0617 59.9077 67.0617 58.6C67.0617 57.2923 66.154 56.4154 65.2002 56.4154C64.2463 56.4154 63.3386 57.2923 63.3386 58.6C63.354 59.9231 64.2463 60.7846 65.2002 60.7846ZM65.2002 61.7385C63.6155 61.7385 62.3232 60.4462 62.3232 58.6C62.3232 56.7539 63.6155 55.4615 65.2002 55.4615C66.7848 55.4615 68.0771 56.7539 68.0771 58.6C68.0925 60.4462 66.8002 61.7385 65.2002 61.7385Z" fill="black"/>
<path d="M69.877 61.6769V55.5385H70.6308L70.9077 56.2154C71.0308 56.0769 71.1846 55.9539 71.3539 55.8462C71.6769 55.6462 72.0923 55.4615 72.6923 55.4615C74 55.4615 75.0923 56.5539 75.0923 58.1231V61.6615H74.0616V58.1231C74.0616 57.1077 73.3539 56.4154 72.5539 56.4154C71.5846 56.4154 70.9077 57.0923 70.9077 58.1231V61.6615H69.877V61.6769Z" fill="black"/>
<path d="M79.7539 60.7846C80.7847 60.7846 81.677 59.9077 81.677 58.6C81.677 57.2923 80.7847 56.4154 79.7539 56.4154C78.7231 56.4154 77.8308 57.2923 77.8308 58.6C77.8308 59.9231 78.7231 60.7846 79.7539 60.7846ZM81.8154 61.677L81.5385 61C81.4 61.1539 81.2462 61.277 81.077 61.3846C80.7539 61.5846 80.3077 61.7539 79.6924 61.7539C78.1077 61.7539 76.8154 60.4616 76.8154 58.6154C76.8154 56.7693 78.1077 55.477 79.6924 55.477C80.3077 55.477 80.7693 55.677 81.077 55.8923C81.2616 56.0154 81.4 56.1539 81.5385 56.3077V53.1077H82.5693V61.6923L81.8154 61.677Z" fill="black"/>
<path d="M88.6763 59.6923V56.4923H87.584V55.5385H88.0609C88.5686 55.5385 88.8148 55.2923 88.8148 54.7846V53.8923H89.7071V55.5385H91.0763V56.4923H89.7071V59.6923C89.7071 60.3846 90.1224 60.7846 90.7378 60.7846C90.8301 60.7846 90.9225 60.7693 90.984 60.7539L91.0763 60.7077V61.6C91.0301 61.6308 90.984 61.6616 90.9224 61.677C90.7994 61.7231 90.6455 61.7539 90.4609 61.7539C89.5224 61.7385 88.6763 60.9231 88.6763 59.6923Z" fill="black"/>
<path d="M93.0771 61.6769V53.0769H94.1079V56.2769C94.231 56.1231 94.3848 55.9846 94.5541 55.8615C94.8771 55.6615 95.2925 55.4461 95.8925 55.4461C97.2002 55.4461 98.2925 56.5384 98.2925 58.1077V61.6461H97.2618V58.1077C97.2618 57.0923 96.5541 56.4 95.7541 56.4C94.7848 56.4 94.1079 57.0769 94.1079 58.1077V61.6461H93.0771V61.6769Z" fill="black"/>
<path d="M104.461 60.0308H105.554C105.138 60.9231 104.323 61.7385 102.938 61.7385C101.292 61.7385 99.9844 60.4462 99.9844 58.6C99.9844 56.7539 101.369 55.4615 102.861 55.4615C104.354 55.4615 105.677 56.6769 105.677 58.5231C105.677 58.7077 105.646 58.8308 105.631 58.9231L105.6 59.0769H101.077C101.154 59.9692 101.954 60.7846 102.938 60.7846C103.769 60.7846 104.261 60.3231 104.461 60.0308ZM101.092 58.2H104.661C104.507 57.1846 103.769 56.4308 102.877 56.4308C101.984 56.4308 101.246 57.1692 101.092 58.2Z" fill="black"/>
<path d="M112.569 61.6769L110.092 55.5385H111.184L113.046 60.2461L114.907 55.5385H115.999L113.523 61.6769H112.569Z" fill="black"/>
<path d="M117.446 61.6769V55.5385H118.2L118.477 56.2154C118.569 56.0769 118.692 55.9539 118.846 55.8462C119.108 55.6462 119.446 55.4615 119.985 55.4615C120.6 55.4615 121.031 55.7385 121.308 56C121.477 56.1692 121.616 56.3385 121.708 56.5385C121.831 56.3385 121.969 56.1539 122.139 56C122.462 55.7231 122.892 55.4615 123.554 55.4615C124.646 55.4615 125.616 56.4 125.616 57.9846V61.6615H124.585V57.9846C124.585 56.9539 124.046 56.4154 123.354 56.4154C122.646 56.4154 122.046 57.0154 122.046 57.9846V61.6615H121.016V57.9846C121.016 56.9539 120.477 56.4154 119.785 56.4154C119.077 56.4154 118.477 57.0769 118.477 57.9846V61.6615L117.446 61.6769Z" fill="black"/>
<path d="M127.323 59.8308H128.354C128.431 60.3692 128.816 60.7846 129.585 60.7846C130.292 60.7846 130.677 60.3692 130.677 59.8923C130.677 58.5077 127.446 59.5692 127.446 57.2308C127.446 56.2923 128.277 55.4615 129.508 55.4615C130.831 55.4615 131.569 56.2154 131.631 57.3077H130.6C130.523 56.7692 130.2 56.4154 129.508 56.4154C128.892 56.4154 128.477 56.8154 128.477 57.2308C128.477 58.6154 131.708 57.5692 131.708 59.8923C131.708 60.9077 130.877 61.7385 129.585 61.7385C128.216 61.7385 127.385 60.9231 127.323 59.8308Z" fill="black"/>
</g>
<defs>
<linearGradient id="paint0_linear_967_297" x1="25.1165" y1="18.5152" x2="44.382" y2="14.1497" gradientUnits="userSpaceOnUse">
<stop stop-color="#A5D3FF"/>
<stop offset="0.5781" stop-color="#0686FF"/>
</linearGradient>
<linearGradient id="paint1_linear_967_297" x1="97.1158" y1="26.4374" x2="52.2696" y2="3.7479" gradientUnits="userSpaceOnUse">
<stop stop-color="#A5D3FF"/>
<stop offset="0.2016" stop-color="#0686FF"/>
</linearGradient>
<clipPath id="clip0_967_297">
<rect width="140.308" height="64" fill="white" transform="translate(0.845703)"/>
</clipPath>
</defs>
</svg>
